<svg width="20" height="20" viewBox="0 0 20 20" fill="none" xmlns="http://www.w3.org/2000/svg">
<g clip-path="url(#clip0_227_20)">
<path d="M3.06827 14.6777C3.91556 14.6777 4.60243 13.9908 4.60243 13.1435C4.60243 12.2962 3.91556 11.6094 3.06827 11.6094C2.22098 11.6094 1.53412 12.2962 1.53412 13.1435C1.53412 13.9908 2.22098 14.6777 3.06827 14.6777Z" fill="#000080"/>
<path d="M3.06826 15.9963C1.37371 15.9963 0 17.3701 0 19.0646H6.13653C6.13653 17.3701 4.76281 15.9963 3.06826 15.9963Z" fill="#000080"/>
<path d="M16.9317 14.6777C17.779 14.6777 18.4659 13.9908 18.4659 13.1435C18.4659 12.2962 17.779 11.6094 16.9317 11.6094C16.0844 11.6094 15.3976 12.2962 15.3976 13.1435C15.3976 13.9908 16.0844 14.6777 16.9317 14.6777Z" fill="#000080"/>
<path d="M16.9317 15.9963C15.2372 15.9963 13.8635 17.3701 13.8635 19.0646H20C20 17.3701 18.6263 15.9963 16.9317 15.9963Z" fill="#000080"/>
<path d="M9.99999 4.00377C10.8473 4.00377 11.5341 3.31692 11.5341 2.46966C11.5341 1.62239 10.8473 0.935547 9.99999 0.935547C9.15273 0.935547 8.46588 1.62239 8.46588 2.46966C8.46588 3.31692 9.15273 4.00377 9.99999 4.00377Z" fill="#000080"/>
<path d="M10 5.32251C8.30545 5.32251 6.93173 6.69622 6.93173 8.39077H13.0683C13.0683 6.69622 11.6945 5.32251 10 5.32251Z" fill="#000080"/>
<path d="M10.6593 10.5835H9.34067V13.5779L6.74744 15.0751L7.40678 16.2172L10 14.7199L12.5932 16.2172L13.2526 15.0751L10.6593 13.5779V10.5835Z" fill="#000080"/>
</g>
<defs>
<clipPath id="clip0_227_20">
<rect width="20" height="20" fill="white"/>
</clipPath>
</defs>
</svg>
