<svg width="20" height="20" viewBox="0 0 20 20" fill="none" xmlns="http://www.w3.org/2000/svg">
<path d="M8.06383 15.3083C8.06383 15.5677 7.85351 15.778 7.59405 15.778H5.81328C5.55382 15.778 5.3435 15.5677 5.3435 15.3083C5.3435 15.0488 5.55382 14.8385 5.81328 14.8385H7.59405C7.85351 14.8385 8.06383 15.0488 8.06383 15.3083ZM11.0748 6.4282H12.8556C13.115 6.4282 13.3254 6.21788 13.3254 5.95842C13.3254 5.69897 13.115 5.48865 12.8556 5.48865H11.0748C10.8153 5.48865 10.605 5.69897 10.605 5.95842C10.605 6.21788 10.8154 6.4282 11.0748 6.4282ZM11.0748 8.41798H12.8556C13.115 8.41798 13.3254 8.20766 13.3254 7.9482C13.3254 7.68875 13.115 7.47843 12.8556 7.47843H11.0748C10.8153 7.47843 10.605 7.68875 10.605 7.9482C10.605 8.20766 10.8154 8.41798 11.0748 8.41798ZM9.03462 9.44749H5.81328C5.55382 9.44749 5.3435 9.65781 5.3435 9.91726C5.3435 10.1767 5.55382 10.387 5.81328 10.387H9.03462C9.29407 10.387 9.50439 10.1767 9.50439 9.91726C9.50439 9.65781 9.29407 9.44749 9.03462 9.44749ZM9.00408 12.8585H5.81323C5.55377 12.8585 5.34346 13.0688 5.34346 13.3283C5.34346 13.5878 5.55377 13.7981 5.81323 13.7981H9.00408C9.26354 13.7981 9.47386 13.5878 9.47386 13.3283C9.47386 13.0688 9.26354 12.8585 9.00408 12.8585ZM17.4757 13.5831V16.6478C17.4757 18.4962 15.9719 19.9999 14.1235 19.9999C13.2488 19.9999 12.4513 19.6632 11.8538 19.1125H2.99407C2.73461 19.1125 2.52429 18.9022 2.52429 18.6428V0.469812C2.52429 0.210355 2.73461 3.69578e-05 2.99407 3.69578e-05H12.4497C12.5716 -0.0015133 12.6921 0.045746 12.7826 0.134533L12.7837 0.135567L12.7847 0.1366L12.7857 0.137634L16.0071 3.35897L16.008 3.35996L16.009 3.36099C16.0749 3.42765 16.1179 3.51095 16.1355 3.59907L16.1361 3.60189L16.1363 3.6033C16.1421 3.63346 16.1449 3.66423 16.1446 3.6951V12.9787C16.4629 13.0171 16.7782 13.0645 17.0897 13.1209C17.3132 13.1613 17.4757 13.3559 17.4757 13.5831ZM12.9233 3.22138H14.5408L12.9233 1.60394V3.22138ZM10.7713 16.6479V13.5831C10.7713 13.3559 10.9338 13.1613 11.1573 13.1208C12.1183 12.9467 13.1163 12.8584 14.1235 12.8584C14.4857 12.8584 14.8467 12.8698 15.2051 12.8925V4.16093H12.4535C12.1941 4.16093 11.9838 3.95061 11.9838 3.69115V0.939586H3.46384V18.1731H11.1388C10.9039 17.7152 10.7713 17.1968 10.7713 16.6479ZM16.5362 13.9806C15.7501 13.8593 14.9403 13.7979 14.1235 13.7979C13.3066 13.7979 12.4969 13.8593 11.7108 13.9806V16.6478C11.7108 17.9781 12.7931 19.0604 14.1235 19.0604C15.4538 19.0604 16.5362 17.9781 16.5362 16.6478V13.9806ZM13.6537 15.1461V15.9594H12.8405C12.581 15.9594 12.3707 16.1697 12.3707 16.4292C12.3707 16.6886 12.581 16.899 12.8405 16.899H13.6537V17.7123C13.6537 17.9717 13.864 18.1821 14.1235 18.1821C14.3829 18.1821 14.5932 17.9717 14.5932 17.7123V16.899H15.4066C15.666 16.899 15.8764 16.6886 15.8764 16.4292C15.8764 16.1697 15.666 15.9594 15.4066 15.9594H14.5932V15.1461C14.5932 14.8867 14.3829 14.6764 14.1235 14.6764C13.864 14.6764 13.6537 14.8867 13.6537 15.1461ZM12.8556 10.387C13.115 10.387 13.3254 10.1767 13.3254 9.91726C13.3254 9.65781 13.115 9.44749 12.8556 9.44749H11.0748C10.8153 9.44749 10.605 9.65781 10.605 9.91726C10.605 10.1767 10.8153 10.387 11.0748 10.387H12.8556ZM9.03462 7.47843H5.81328C5.55382 7.47843 5.3435 7.68875 5.3435 7.9482C5.3435 8.20766 5.55382 8.41798 5.81328 8.41798H9.03462C9.29407 8.41798 9.50439 8.20766 9.50439 7.9482C9.50439 7.68875 9.29407 7.47843 9.03462 7.47843ZM9.03462 5.48865H5.81328C5.55382 5.48865 5.3435 5.69897 5.3435 5.95842C5.3435 6.21788 5.55382 6.4282 5.81328 6.4282H9.03462C9.29407 6.4282 9.50439 6.21788 9.50439 5.95842C9.50439 5.69897 9.29407 5.48865 9.03462 5.48865Z" fill="#000080"/>
</svg>
