<svg width="20" height="20" viewBox="0 0 20 20" fill="none" xmlns="http://www.w3.org/2000/svg">
<g clip-path="url(#clip0_227_44)">
<path d="M8.23096 16.638C8.23096 16.8059 8.22687 17.0148 8.1982 17.2236L8.08764 19.2261C8.08764 19.3735 7.96888 19.4923 7.82146 19.4923L4.68469 19.4759C4.53727 19.4759 4.41852 19.3571 4.41852 19.2097L4.36119 17.5553L1.38412 13.9681C0.945952 13.5013 0.647016 12.9771 0.552831 12.3465L0.524166 12.1622L0.00410064 7.12943C-0.0204694 6.87964 0.0655257 6.62575 0.257991 6.47014C0.491406 6.28177 0.859957 6.21215 1.13432 6.52337C1.32679 6.7445 1.42097 7.43246 1.45373 7.61674C1.5643 8.27604 1.67486 9.21789 1.69124 9.88128C1.69124 9.92632 1.69534 9.98775 1.69943 10.0328C1.71581 10.3235 1.78543 10.5938 1.90828 10.86C2.57986 12.3178 3.92711 14.1606 3.92711 14.1606L4.00082 14.2711C4.05815 14.353 4.16872 14.3817 4.25881 14.3325C4.35709 14.2793 4.38985 14.1524 4.33252 14.0582L2.5471 11.1466C2.35463 10.8231 2.4652 10.3645 2.81327 10.1515C3.16135 9.93861 3.61999 10.0451 3.81245 10.3686L5.66749 12.7519C5.79034 12.9075 6.01557 13.1327 6.17527 13.2474C7.84194 14.4472 8.06716 15.6675 8.21458 16.29C8.21458 16.2981 8.22687 16.4374 8.23096 16.638ZM1.88371 6.87554C1.93694 7.05163 1.9738 7.23181 2.00246 7.4038C2.09665 7.97301 2.23997 9.00085 2.24816 9.54549C2.24816 9.60282 2.25226 9.65605 2.25226 9.71338C2.31368 9.66015 2.3792 9.60691 2.45291 9.56187C2.543 9.50454 2.63719 9.46359 2.73547 9.43083C2.73956 9.42264 2.74366 9.41854 2.74775 9.41445C2.67814 8.89438 2.49386 7.91158 2.35873 7.4038C2.28911 7.14581 2.14169 6.95744 1.88371 6.87554ZM2.88289 7.59626C2.96479 7.97301 3.17773 8.66506 3.22687 9.03361L3.25963 9.28341C3.26372 9.30798 3.26372 9.33255 3.26372 9.35712C3.41524 9.36121 3.56675 9.39397 3.71008 9.44721C3.66094 9.11142 3.43571 8.43984 3.35381 8.12452C3.2801 7.86653 3.13268 7.68226 2.88289 7.59626ZM18.8657 6.52337C18.6732 6.7445 18.579 7.43246 18.5463 7.61674C18.4357 8.27604 18.3251 9.21789 18.3088 9.88128C18.3088 9.92632 18.3047 9.98775 18.3006 10.0328C18.2842 10.3235 18.2146 10.5938 18.0917 10.86C17.4202 12.3178 16.0729 14.1606 16.0729 14.1606L15.9992 14.2711C15.9419 14.353 15.8313 14.3817 15.7412 14.3325C15.6429 14.2793 15.6102 14.1524 15.6675 14.0582L17.4529 11.1466C17.6454 10.8231 17.5348 10.3645 17.1867 10.1515C16.8387 9.93861 16.38 10.0451 16.1876 10.3686L14.3325 12.7519C14.2097 12.9075 13.9844 13.1327 13.8247 13.2474C12.1581 14.4472 11.9328 15.6675 11.7854 16.29C11.7854 16.29 11.7731 16.4292 11.769 16.6298C11.769 16.7977 11.7731 17.0066 11.8018 17.2154L11.9124 19.2179C11.9124 19.3653 12.0311 19.4841 12.1785 19.4841L15.3153 19.4677C15.4627 19.4677 15.5815 19.3489 15.5815 19.2015L15.6388 17.5471L18.6159 13.9599C19.0541 13.4931 19.353 12.9689 19.4472 12.3383L19.4758 12.154L19.9959 7.12124C20.0205 6.87145 19.9345 6.61756 19.742 6.46195C19.5086 6.28177 19.1401 6.21215 18.8657 6.52337ZM17.7518 9.70929C17.7518 9.65196 17.7559 9.59872 17.7559 9.54139C17.7682 8.99676 17.9075 7.96891 18.0016 7.3997C18.0303 7.22771 18.0631 7.05163 18.1204 6.87145C17.8624 6.95744 17.7109 7.14172 17.6454 7.39561C17.5102 7.90339 17.326 8.88619 17.2564 9.40626C17.2604 9.41445 17.2645 9.41854 17.2686 9.42264C17.3669 9.4554 17.4611 9.50044 17.5512 9.55368C17.6208 9.60691 17.6863 9.65605 17.7518 9.70929ZM16.7731 9.02952C16.8223 8.66506 17.0311 7.973 17.1171 7.59217C16.8632 7.67816 16.7158 7.86244 16.6503 8.11633C16.5684 8.43165 16.3432 9.10323 16.294 9.43902C16.4374 9.38578 16.5889 9.35712 16.7404 9.34893C16.7404 9.32436 16.7404 9.29979 16.7445 9.27522L16.7731 9.02952ZM15.8272 9.04999C15.8272 8.80429 15.6306 8.60773 15.3849 8.60773H4.7584C4.5127 8.60773 4.31614 8.80429 4.31614 9.04999C4.31614 9.29569 4.5127 9.49225 4.7584 9.49225H15.3849C15.6306 9.49225 15.8272 9.29569 15.8272 9.04999ZM14.2424 10.6511C14.2424 10.4054 14.0459 10.2089 13.8002 10.2089H5.54464C5.29894 10.2089 5.10238 10.4054 5.10238 10.6511C5.10238 10.8968 5.29894 11.0934 5.54464 11.0934H13.8002C14.0459 11.0934 14.2424 10.8968 14.2424 10.6511ZM7.02294 11.8141C6.77724 11.8141 6.58068 12.0107 6.58068 12.2564C6.58068 12.5021 6.77724 12.6986 7.02294 12.6986H12.3178C12.5635 12.6986 12.76 12.5021 12.76 12.2564C12.76 12.0107 12.5635 11.8141 12.3178 11.8141H7.02294ZM13.3006 3.57907C12.9525 3.57907 12.674 3.86162 12.674 4.2056C12.674 4.55368 12.9566 4.83214 13.3006 4.83214C13.6446 4.83214 13.9271 4.54958 13.9271 4.2056C13.9271 3.85753 13.6446 3.57907 13.3006 3.57907ZM6.69943 3.57907C6.35136 3.57907 6.0729 3.86162 6.0729 4.2056C6.0729 4.55368 6.35545 4.83214 6.69943 4.83214C7.04341 4.83214 7.32597 4.54958 7.32597 4.2056C7.33006 3.85753 7.04751 3.57907 6.69943 3.57907ZM15.9746 6.87145C15.9746 7.44065 15.5119 7.90749 14.9386 7.90749H5.06143C4.49223 7.90749 4.02539 7.44475 4.02539 6.87145V1.54385C4.02539 0.974643 4.48813 0.507812 5.06143 0.507812H14.9386C15.5078 0.507812 15.9746 0.970548 15.9746 1.54385V6.87145ZM15.0901 2.66178C15.0082 2.68226 14.9222 2.69454 14.8321 2.69454C14.2547 2.69454 13.7838 2.22362 13.7838 1.64622C13.7838 1.55613 13.7961 1.47423 13.8166 1.39233H6.12204C6.13432 1.45376 6.13842 1.51928 6.13842 1.5848C6.13842 2.16219 5.66749 2.63312 5.0901 2.63312C5.02867 2.63312 4.96725 2.62902 4.90582 2.61674V5.79856C4.96725 5.78627 5.02867 5.78218 5.0901 5.78218C5.66749 5.78218 6.13842 6.2531 6.13842 6.8305C6.13842 6.89602 6.13023 6.96154 6.12204 7.02296H13.7879C13.7838 6.98201 13.7797 6.93697 13.7797 6.89192C13.7797 6.31453 14.2506 5.8436 14.828 5.8436C14.9181 5.8436 15.0041 5.85589 15.086 5.87636V2.66178H15.0901ZM12.2686 4.2056C12.2686 5.45867 11.2531 6.47423 10 6.47423C8.74693 6.47423 7.73137 5.45867 7.73137 4.2056C7.73137 2.95253 8.74693 1.93697 10 1.93697C11.2531 1.93697 12.2686 2.95253 12.2686 4.2056ZM10.43 4.06637C10.3071 3.99676 10.1802 3.94762 10.0491 3.89438C9.97544 3.86162 9.90173 3.82886 9.8403 3.77563C9.71745 3.67735 9.74202 3.51764 9.88535 3.45212C9.9263 3.43574 9.96725 3.42755 10.0123 3.42755C10.1802 3.41936 10.3399 3.44803 10.4914 3.52174C10.5651 3.55859 10.5938 3.54631 10.6184 3.4685C10.647 3.3866 10.6675 3.30061 10.6921 3.21461C10.7084 3.15728 10.688 3.12042 10.6347 3.09585C10.5365 3.0549 10.4382 3.02215 10.3317 3.00576C10.1925 2.98529 10.1925 2.98529 10.1925 2.84606C10.1925 2.6495 10.1925 2.6495 9.99591 2.6495C9.96725 2.6495 9.93858 2.6495 9.90992 2.6495C9.81983 2.65359 9.80345 2.66588 9.79935 2.76006C9.79935 2.80101 9.79935 2.84196 9.79935 2.88291C9.79935 3.00576 9.79935 3.00167 9.6806 3.04672C9.39804 3.14909 9.22196 3.34156 9.20557 3.64868C9.18919 3.92305 9.33252 4.10732 9.55365 4.23836C9.69288 4.32026 9.8444 4.3694 9.99182 4.43492C10.0491 4.45949 10.1024 4.48816 10.1515 4.52911C10.2908 4.64377 10.2662 4.84033 10.0983 4.90994C10.0082 4.95089 9.91401 4.95908 9.81983 4.9468C9.66831 4.92632 9.52908 4.88947 9.39394 4.81985C9.31614 4.7789 9.29157 4.79119 9.267 4.87718C9.24243 4.95089 9.22195 5.0246 9.20148 5.09831C9.17281 5.19659 9.1851 5.22116 9.27929 5.2703C9.40213 5.32763 9.53318 5.36039 9.66422 5.38087C9.76659 5.39725 9.77069 5.40134 9.77069 5.50781C9.77069 5.55695 9.77069 5.60609 9.77069 5.65523C9.77069 5.71666 9.79935 5.75351 9.86487 5.75351C9.93858 5.75351 10.0082 5.75351 10.0819 5.75351C10.1392 5.75351 10.172 5.72075 10.172 5.65933C10.172 5.59381 10.1761 5.52419 10.172 5.45867C10.1679 5.38906 10.1966 5.3563 10.2621 5.33992C10.4136 5.29897 10.5405 5.21707 10.6388 5.09831C10.9255 4.76662 10.819 4.27931 10.43 4.06637Z" fill="#000080"/>
</g>
<defs>
<clipPath id="clip0_227_44">
<rect width="20" height="20" fill="white"/>
</clipPath>
</defs>
</svg>
