<svg width="20" height="20" viewBox="0 0 20 20" fill="none" xmlns="http://www.w3.org/2000/svg">
<path d="M3.5 9C3.5 6.51472 5.51472 4.5 8 4.5C8.27614 4.5 8.5 4.72386 8.5 5V9C8.5 9.27614 8.27614 9.5 8 9.5H4C3.72386 9.5 3.5 9.27614 3.5 9Z" fill="#000080" stroke="#000080"/>
<path d="M3.5 12C3.5 11.7239 3.72386 11.5 4 11.5H8C8.27614 11.5 8.5 11.7239 8.5 12V16C8.5 16.2761 8.27614 16.5 8 16.5C5.51472 16.5 3.5 14.4853 3.5 12Z" fill="#000080" stroke="#000080"/>
<path d="M10.5 5C10.5 4.72386 10.7239 4.5 11 4.5C13.4853 4.5 15.5 6.51472 15.5 9C15.5 9.27614 15.2761 9.5 15 9.5H11C10.7239 9.5 10.5 9.27614 10.5 9V5Z" fill="#000080" stroke="#000080"/>
<path d="M10.5 12C10.5 11.7239 10.7239 11.5 11 11.5H15C15.2761 11.5 15.5 11.7239 15.5 12C15.5 14.4853 13.4853 16.5 11 16.5C10.7239 16.5 10.5 16.2761 10.5 16V12Z" fill="#000080" stroke="#000080"/>
</svg>
