<svg width="20" height="20" viewBox="0 0 20 20" fill="none" xmlns="http://www.w3.org/2000/svg">
<path d="M16.591 1.59484H13.6278V0.996406C13.6278 0.446992 13.1808 0 12.6314 0H7.36863C6.81922 0 6.37222 0.446992 6.37222 0.996406V1.59484H3.40902C3.05015 1.59484 2.75922 1.88578 2.75922 2.24465V19.3502C2.75922 19.7091 3.05015 20 3.40902 20H16.591C16.9498 20 17.2408 19.7091 17.2408 19.3502V2.24465C17.2408 1.88578 16.9499 1.59484 16.591 1.59484ZM7.67187 1.29965H12.3281C12.3281 1.88285 12.3281 2.28691 12.3281 2.86508H7.67187C7.67187 2.28688 7.67187 1.88281 7.67187 1.29965ZM15.9412 18.7004H4.05883V2.89445H6.37222V3.16828V3.17613C6.37222 3.72125 6.81566 4.16469 7.36078 4.16469H7.36863H12.6314H12.6393C13.1844 4.16469 13.6278 3.72125 13.6278 3.17613V3.16828V2.89445H15.9412V18.7004H15.9412Z" fill="#000080"/>
<path d="M7.70659 6.79236L8.25217 6.24678C8.50596 5.99299 8.50596 5.58158 8.25217 5.32779C7.99842 5.074 7.58698 5.074 7.33319 5.32779L6.7876 5.87338L6.24202 5.32779C5.98827 5.074 5.57682 5.074 5.32303 5.32779C5.06924 5.58158 5.06924 5.99299 5.32303 6.24678L5.86862 6.79236L5.32303 7.33795C5.06924 7.59174 5.06924 8.00314 5.32303 8.25693C5.57678 8.51072 5.98823 8.51076 6.24202 8.25693L6.7876 7.71135L7.33319 8.25693C7.58694 8.51072 7.99838 8.51076 8.25217 8.25693C8.50596 8.00314 8.50596 7.59174 8.25217 7.33795L7.70659 6.79236Z" fill="#000080"/>
<path d="M7.70659 11.64L8.25217 11.0944C8.50596 10.8406 8.50596 10.4292 8.25217 10.1754C7.99842 9.92166 7.58698 9.92166 7.33319 10.1754L6.7876 10.721L6.24202 10.1754C5.98827 9.9217 5.57686 9.92166 5.32303 10.1754C5.06924 10.4292 5.06924 10.8406 5.32303 11.0944L5.86862 11.64L5.32303 12.1856C5.06924 12.4394 5.06924 12.8508 5.32303 13.1046C5.57678 13.3584 5.98823 13.3584 6.24202 13.1046L6.7876 12.559L7.33319 13.1046C7.58698 13.3584 7.99838 13.3584 8.25217 13.1046C8.50596 12.8508 8.50596 12.4394 8.25217 12.1856L7.70659 11.64Z" fill="#000080"/>
<path d="M6.84745 14.6858C5.85389 14.6858 5.04553 15.4941 5.04553 16.4877C5.04553 17.4813 5.85385 18.2896 6.84745 18.2896C7.84104 18.2896 8.64936 17.4813 8.64936 16.4877C8.64936 15.4941 7.84104 14.6858 6.84745 14.6858ZM6.84745 16.99C6.57049 16.99 6.34518 16.7647 6.34518 16.4877C6.34518 16.2108 6.57053 15.9854 6.84745 15.9854C7.1244 15.9854 7.34971 16.2108 7.34971 16.4877C7.34971 16.7647 7.1244 16.99 6.84745 16.99Z" fill="#000080"/>
<path d="M14.6527 6.14258H10.3808C10.022 6.14258 9.73102 6.43352 9.73102 6.79238C9.73102 7.15125 10.022 7.44219 10.3808 7.44219H14.6527C15.0116 7.44219 15.3025 7.15125 15.3025 6.79238C15.3026 6.43356 15.0116 6.14258 14.6527 6.14258Z" fill="#000080"/>
<path d="M14.6527 10.9902H10.3808C10.022 10.9902 9.73102 11.2812 9.73102 11.64C9.73102 11.9989 10.022 12.2898 10.3808 12.2898H14.6527C15.0116 12.2898 15.3025 11.9989 15.3025 11.64C15.3026 11.2812 15.0116 10.9902 14.6527 10.9902Z" fill="#000080"/>
<path d="M14.6527 15.8379H10.3808C10.022 15.8379 9.73102 16.1288 9.73102 16.4877C9.73102 16.8466 10.022 17.1375 10.3808 17.1375H14.6527C15.0116 17.1375 15.3025 16.8466 15.3025 16.4877C15.3026 16.1288 15.0116 15.8379 14.6527 15.8379Z" fill="#000080"/>
</svg>
